# xmcd
#
# Track frame offsets:
# 150
# 22722
# 43971
# 66577
# 81505
# 106031
# 127698
# 148111
# 167899
# 182855
# 200118
# 222667
# 243921
# 266452
# 281280
# 305807
# 326194
# 341114
#
# Disc length: 4778 seconds
#
#
# Revision: 0
# Processed by: cddbd v1.5.2PL0 Copyright (c) Steve Scherf et al.
# Submitted via: FreeRIP 2.943 
#
DISCID=1d12a812
DTITLE=Valdir e Enedyr - Hora de Voltar
DYEAR=1900
DGENRE=Gospel
TTITLE0=Provas de Um Grande Amor
TTITLE1=Brisa do espírito
TTITLE2=Hora de Voltar
TTITLE3=Fogo no altar
TTITLE4=Cante a Vitória
TTITLE5=Jesus esse Amor
TTITLE6=O Azeite da Viúva
TTITLE7=Está Consumado
TTITLE8=Quando Deus Fala
TTITLE9=Cruz Pesada
TTITLE10=Play Back
TTITLE11=Play Back
TTITLE12=Play Back
TTITLE13=Play Back
TTITLE14=Play Back
TTITLE15=Play Back
TTITLE16=Play Back
TTITLE17=Play Back
EXTD=
EXTT0=
EXTT1=
EXTT2=
EXTT3=
EXTT4=
EXTT5=
EXTT6=
EXTT7=
EXTT8=
EXTT9=
EXTT10=
EXTT11=
EXTT12=
EXTT13=
EXTT14=
EXTT15=
EXTT16=
EXTT17=
PLAYORDER=
